<svg height="64.021px" id="Layer_1" style="enable-background:new 0 0 54.002 64.021;" version="1.1" viewBox="0 0 54.002 64.021" width="54.002px" xml:space="preserve" xmlns="http://www.w3.org/2000/svg" xmlns:xlink="http://www.w3.org/1999/xlink"><g id="Android_Logo"><g><path d="M10.021,44.015c0,3.308,2.677,5.985,5.981,5.996v10.506c0,1.935,1.789,3.505,3.999,3.505    c2.205,0,3.996-1.57,3.996-3.505V50.013h6.007v10.504c0,1.935,1.789,3.505,3.999,3.505c2.205,0,3.996-1.57,3.996-3.505V50.013    h0.025c3.315,0,6.001-2.685,6.001-5.998V20.027H10.021V44.015z M3.998,20.035C1.789,20.035,0,21.602,0,23.538v14.989    c0,1.935,1.789,3.507,3.998,3.507c2.205,0,3.997-1.572,3.997-3.507V23.538C7.995,21.602,6.203,20.035,3.998,20.035z M34.239,5.373    l3.494-3.49c0.432-0.432,0.432-1.13,0-1.559c-0.43-0.433-1.129-0.433-1.561,0l-4.302,4.297c-1.537-0.376-3.162-0.586-4.848-0.586    c-1.668,0-3.274,0.207-4.797,0.575l-4.291-4.286c-0.432-0.433-1.131-0.433-1.561,0c-0.432,0.429-0.432,1.127,0,1.559l3.477,3.473    c-5.801,2.229-9.831,7.059-9.831,12.673c0,0.068,34.005,0.006,34.005,0C44.025,12.428,40.018,7.609,34.239,5.373z M22.022,14.031    c-1.105,0-2.001-0.895-2.001-2c0-1.103,0.896-1.998,2.001-1.998s2,0.896,2,1.998C24.022,13.137,23.128,14.031,22.022,14.031z     M32.023,14.031c-1.105,0-2-0.895-2-2c0-1.103,0.895-1.998,2-1.998s2.001,0.896,2.001,1.998    C34.024,13.137,33.129,14.031,32.023,14.031z M50.005,20.035c-2.209,0-3.999,1.566-3.999,3.503v14.989    c0,1.935,1.79,3.507,3.999,3.507c2.205,0,3.997-1.572,3.997-3.507V23.538C54.002,21.602,52.21,20.035,50.005,20.035z" style="fill:#88C057;"/></g></g><g/><g/><g/><g/><g/><g/><g/><g/><g/><g/><g/><g/><g/><g/><g/></svg>