<svg xmlns="http://www.w3.org/2000/svg" enable-background="new 0 0 24 24" viewBox="0 0 24 24" id="grafana"><polygon points="6.167 18.822 6.156 18.807 6.154 18.805 6.167 18.822"></polygon><linearGradient id="a" x1="-1699.737" x2="-1698.737" y1="-1051.947" y2="-1051.947" gradientTransform="scale(19 -19) rotate(90 -1374.97 323.654)" gradientUnits="userSpaceOnUse"><stop offset="0" stop-color="#f9c800"></stop><stop offset="1" stop-color="#eb5c10"></stop></linearGradient><path fill="url(#a)" d="M15.575,15.735l-0.002,0.001C15.574,15.735,15.574,15.735,15.575,15.735L15.575,15.735L15.575,15.735z M13.176,15.6v0.9c0.023,0.007,0.045,0.015,0.068,0.022c0.341,0.108,0.671,0.138,0.942,0.138c0.355,0,0.611-0.052,0.668-0.052c1.529-0.504,1.109-0.89,0.816-0.89c-0.035,0-0.068,0.005-0.096,0.017c-0.237,0.237-1.062,0.255-1.21,0.255c-0.027,0-0.031-0.001-0.006-0.001h-0.078l-0.084-0.021C13.799,15.896,13.46,15.768,13.176,15.6L13.176,15.6z M1.176,14.549C1.052,14.833,1,15.013,1,15.013c0.058,0.068,0.117,0.133,0.176,0.197V14.549L1.176,14.549z M15.386,8.344c-0.834,0-1.576,0.202-2.21,0.543v2.052c0.44-0.351,0.988-0.569,1.617-0.569c3.599,0,5.339,3.931,3.182,6.814c-1.386,1.889-3.427,2.107-4.053,2.107c-0.188,0-0.249-0.02-0.127-0.02c-0.211,0-0.418-0.009-0.619-0.025v3.114c0.008,0,0.016,0.001,0.024,0.001h0.87c0.997,1.448,2.78,1.64,2.78,1.64c0.731-0.784,1.269-1.707,1.337-3.066c1.83-1.379,1.935-2.021,2.185-2.278c0.059,0.004,0.118,0.005,0.175,0.005c1.328,0,2.245-0.899,2.245-0.899c-0.066-0.425-0.279-1.53-1.315-2.406c0-2.29,0.063-3.321-2.037-5.495c-1.048-0.934-1.986-1.208-3.204-1.449C15.943,8.365,15.66,8.344,15.386,8.344L15.386,8.344z M13.176,0.103v5.072l0.658-0.105c0.043,0,0.089,0.002,0.136,0.002c0.062,0,0.125-0.004,0.182-0.023c0.013,0.002,0.032,0.003,0.058,0.003c0.045,0,0.109-0.002,0.19-0.004c0.082-0.002,0.183-0.004,0.298-0.004c0.728,0,2.072,0.088,3.498,0.823c0.865,0.426,1.676,1.063,1.726,1.163l0.085,0.085l0.339,0.298c0.171,0.255,0.734,0.599,1.592,2.234l0.128,0.234c0.611,1.258,0.446,1.781,0.764,1.789c0.249,0,0.175-0.345,0.127-1.044h0.004c-0.264-2.494-1.207-3.946-2.61-5.494c0.34-1.342-0.403-2.513-0.403-2.513c-0.102-0.007-0.201-0.01-0.296-0.01c-1.122,0-1.828,0.431-2.101,0.628c-0.725-0.355-2.158-0.682-2.398-0.682C14.716,1.141,13.617,0.366,13.176,0.103L13.176,0.103z"></path><polygon points="11.426 15.254 11.423 15.25 11.419 15.245 11.426 15.254"></polygon><polygon points="20.705 11.281 20.715 11.3 20.721 11.309"></polygon><linearGradient id="b" x1="-1699.737" x2="-1698.737" y1="-1051.693" y2="-1051.693" gradientTransform="scale(19 -19) rotate(90 -1374.97 323.654)" gradientUnits="userSpaceOnUse"><stop offset="0" stop-color="#d9ae00"></stop><stop offset="1" stop-color="#cd500e"></stop></linearGradient><path fill="url(#b)" d="M11.426,15.254l-0.007-0.009l0.004,0.005L11.426,15.254L11.426,15.254z M13.176,8.887c-3.023,1.627-3.596,6.42,0,7.614v-0.9c-1.72-1.017-1.42-3.53,0-4.662V8.887L13.176,8.887z M12.988,0c-1.895,1.225-2.178,2.774-2.227,2.875c-0.462,0.091-1.722,0.617-2.653,1.277L8.044,4.11c-0.73-0.282-1.436-0.381-2.069-0.381c-1.52,0-2.619,0.573-2.619,0.573C3.164,6.963,4.352,8.624,4.586,8.922c-0.531,1.415-0.559,2.397-0.616,2.62c-1.656,0.816-2.47,2.267-2.794,3.007v0.66c1.87,2.025,3.984,2.146,3.984,2.146c0.57,1.031,1.053,1.539,1.465,2.002c-0.701,2.002,0.105,3.684,0.105,3.684c0.085,0.003,0.169,0.005,0.251,0.005c2.001,0,3.303-0.951,3.589-1.176c0.143,0.034,1.208,0.441,2.607,0.489v-3.114C6.134,18.661,5.4,8.118,11.163,5.794c0.712-0.349,1.511-0.503,1.612-0.555l0.401-0.064V0.103C13.059,0.033,12.988,0,12.988,0L12.988,0z"></path><polygon points="11.419 15.245 11.426 15.254 11.423 15.25 11.419 15.245"></polygon></svg>