<?xml version="1.0" encoding="UTF-8"?>
<svg xmlns="http://www.w3.org/2000/svg" xmlns:xlink="http://www.w3.org/1999/xlink" width="291.24pt" height="266.88pt" viewBox="0 0 291.24 266.88" version="1.1">
<defs>
<clipPath id="clip1">
  <path d="M 12 0 L 291.238281 0 L 291.238281 227 L 12 227 Z M 12 0 "/>
</clipPath>
<clipPath id="clip2">
  <path d="M 0 225 L 81 225 L 81 266.878906 L 0 266.878906 Z M 0 225 "/>
</clipPath>
</defs>
<g id="surface1">
<g clip-path="url(#clip1)" clip-rule="nonzero">
<path style=" stroke:none;fill-rule:nonzero;fill:rgb(31.399536%,37.298584%,40.79895%);fill-opacity:1;" d="M 206.28125 136.492188 L 226.3125 116.117188 L 204.6875 94.09375 C 187.082031 76.179688 192.246094 66.664063 196.300781 62.554688 C 198.871094 59.921875 201.460938 57.953125 203.242188 56.964844 C 205.730469 61.898438 208.996094 66.390625 212.925781 70.273438 C 233.898438 91.796875 256.84375 88.824219 274.4375 70.777344 C 284.941406 60.085938 289.953125 50.234375 291.238281 45.300781 L 273.960938 35.613281 C 271.871094 40.203125 267.011719 48.101563 261.542969 53.683594 C 252.011719 63.53125 242.949219 63.53125 236.828125 58.445313 L 272.855469 21.972656 L 268.335938 17.371094 C 247.15625 -4.308594 227.492188 -5.46875 209.714844 12.605469 C 197.9375 24.597656 196.316406 39.382813 201.472656 52.855469 L 188.234375 36.925781 C 186.945313 37.425781 184.519531 39.382813 182.101563 41.851563 C 175.15625 49.085938 173.539063 60.246094 175.324219 67.640625 L 166.425781 59.929688 L 148.835938 77.835938 L 173.039063 102.480469 C 153.832031 86.382813 136.554688 87.199219 120.582031 103.460938 C 104.429688 119.882813 105.398438 139.941406 118.804688 156.675781 L 116.535156 154.394531 C 102.167969 139.769531 88.285156 136.628906 74.550781 150.769531 C 66.476563 158.824219 65.191406 166.703125 65.996094 173.78125 L 32.089844 139.433594 L 12.371094 159.476563 L 77.914063 226.351563 L 117.972656 226.351563 L 90.363281 198.253906 C 80.675781 188.554688 77.765625 181.820313 83.734375 175.746094 C 88.09375 171.144531 93.105469 171.304688 99.234375 177.542969 L 132.503906 211.558594 L 152.527344 191.191406 L 127.660156 165.894531 C 147.347656 182.496094 168.832031 178.390625 185.144531 161.636719 C 193.714844 153.097656 198.382813 145.195313 200.660156 139.78125 L 183.042969 129.769531 C 180.460938 134.367188 176.585938 140.113281 172.394531 144.558594 C 162.703125 154.398438 153.664063 154.398438 147.535156 149.308594 L 183.226563 113 L 206.296875 136.492188 Z M 134.917969 138.121094 C 129.421875 131.71875 129.261719 124.167969 134.917969 118.402344 C 140.40625 112.820313 147.515625 112.660156 154.457031 118.402344 Z M 224.214844 47.261719 C 218.722656 40.863281 218.5625 33.46875 224.214844 27.558594 C 229.691406 21.972656 236.800781 21.816406 243.589844 27.558594 L 224.214844 47.261719 "/>
</g>
<g clip-path="url(#clip2)" clip-rule="nonzero">
<path style=" stroke:none;fill-rule:nonzero;fill:rgb(0%,68.199158%,76.899719%);fill-opacity:1;" d="M 0 225.972656 L 40.191406 266.878906 L 80.390625 225.972656 Z M 0 225.972656 "/>
</g>
</g>
</svg>
