

<svg
  id="logo-anim"
  xmlns="http://www.w3.org/2000/svg"
  xmlns:xlink="http://www.w3.org/1999/xlink"
  width="256"
  height="256"
  viewBox="0 0 256 256"
>
<style>
    .st0{
        clip-path: url("#XMLID_8_");
        fill: none;
       
        stroke-width: 70.344;
        stroke-miterlimit:10;
    } 
    .st1{
        clip-path:url(#XMLID_11_);
        fill:none;
        
        stroke-width:70.344;
        stroke-miterlimit:10;
    }
</style>
<linearGradient id="paint" x1="127.7" y1="15.7" x2="127.7" y2="235.1" gradientUnits="userSpaceOnUse">
<stop stop-color="#2D2E83"/>
<stop offset="1" stop-color="#1D71B8"/>
</linearGradient>
  <g id="XMLID_10_">
    <defs>
      <path
        id="XMLID_4_"
        d="M54.9 147.2l80-70h-33.5l-80 70L122 235.3h33.5L54.9 147.2z"
         stroke="url(#paint)"
      ></path>
    </defs>
    <clipPath id="XMLID_8_">
      <use xlink:href="#XMLID_4_" overflow="visible"></use>
    </clipPath>

    <path
      id="XMLID_3_"
      d="M154.6 249.8L37.8 147.2c8.3-8.3 91.4-81.4 91.4-81.4"
      class="st0"
      stroke="url(#paint)"
    ></path>
  </g>
  <g id="XMLID_6_">
    <g id="XMLID_7_">
      <defs>
        <path
          id="XMLID_2_"
          d="M251.1 237.4h-40l-.5-.4-102.5-89.7 1.8-1.6 34.8-31 12.2-10.4c3.9-3.2 7.4-6.2 7.8-6.8 4.8-5.8 7.3-12.8 7.3-20.4 0-17.6-14.3-31.9-31.9-31.9H4.8l25.8-26.6 114.6-.1-.2.2c29.9 2.5 53.6 27.9 53.6 58.3 0 13.4-4.8 26.7-13.5 37.2-.5.6-2.3 2.3-2.6 2.6-.3.3-1.1 1-1.1 1l-.5.4L148 147l103.1 90.4z"
        stroke="url(#paint)"
        ></path>
      </defs>
      <clipPath id="XMLID_11_">
        <use xlink:href="#XMLID_2_" overflow="visible"></use>
      </clipPath>
      <path
        id="XMLID_1_"
        stroke="url(#paint)"
        d="M-.5 29.8l126.8-.1c29.9 2.5 57.4 17 57.4 47.4 0 13.4-4.3 24.4-17.4 37.2-.5.6-2.3 2.3-2.6 2.6-.3.3-1.1 1-1.1 1l-.5.4-32.9 28.8 118.9 105.6"
        class="st1"
      ></path>
    </g>
  </g>
</svg>
