<svg width="256" height="256" viewBox="0 0 256 256" fill="none" xmlns="http://www.w3.org/2000/svg">
<path d="M53.2 145.1L135.1 73.4H100.8L19 145.1L121.8 235.1H156.1L53.2 145.1Z" fill="current"/>
<path d="M252.8 236.9H213.2L212.7 236.5L108.3 145.2L145.4 112.2L157.9 101.6C161.4 98.7 165.4 95.3 166 94.6C171 88.6 173.6 81.3 173.6 73.5C173.6 55.3 158.8 40.4 140.5 40.4H3L28.6 14H144.4L144.3 14.1C175.3 16.1 199.9 41.9 199.9 73.4C199.9 87 195 100.5 186.2 111.2C185.7 111.8 184 113.5 183.6 113.8C183.3 114.1 182.4 114.8 182.4 114.8L181.9 115.2L147.9 145L252.8 236.9ZM214.5 233.4H243.5L142.6 145.1L176.7 115.2L178.1 114.134L178.5 113.8L179.9 112.5L179.1 113.2L180.7 111.8C180.9 111.6 181.1 111.4 181.3 111.3C181.7 111 183.2 109.4 183.5 109.1C191.8 99 196.4 86.3 196.4 73.5C196.4 42.7 171.3 17.6 140.5 17.6H136.6L30.1 17.5L11.3 36.9L120.3 36.8H140.4C160.6 36.8 177 53.2 177 73.4C177 82 174.1 90 168.6 96.7C167.6 98 161.3 103.2 160.1 104.2L147.7 114.8L113.6 145.1L214.5 233.4Z" fill="current"/>
<path d="M145.3 145.1L181.3 113.5C181.3 113.5 182.1 112.8 182.4 112.5L184.8 110.1C193.3 99.8 198.1 86.8 198.1 73.4C198.1 41.6 172.3 15.7 140.5 15.7L29.4 15.8L7.2 38.6L118.6 38.5H140.5C159.7 38.5 175.3 54.1 175.3 73.3C175.3 81.5 172.6 89.1 167.3 95.5C166.3 96.8 159 102.8 159 102.8L146.6 113.4L111 145.1L213.9 235.1H248.2L145.3 145.1Z" fill="current"/>
</svg>
