<?xml version="1.0" ?><svg id="icon" viewBox="0 0 32 32" xmlns="http://www.w3.org/2000/svg"><defs><style>.cls-1{fill:none;}</style></defs><title/><path d="M12,16a4,4,0,1,0,4-4A4,4,0,0,0,12,16Zm6,0a2,2,0,1,1-2-2A2,2,0,0,1,18,16Z" stroke="red" stroke-width="current"/><polygon points="16 27.17 10.4 21.58 9 23 16 30 23 23 21.59 21.59 16 27.17" /><polygon points="16 4.83 21.58 10.4 23 9 16 2 9 9 10.41 10.41 16 4.83"/><rect class="cls-1" data-name="&lt;Transparent Rectangle&gt;" height="32" id="_Transparent_Rectangle_" width="32"/></svg>